{"buffers":[{"uri":"scene.bin","byteLength":17917260}],"asset":{"version":"2.0","generator":"gltfpack 0.15","extras":{"author":"dipietron (https://sketchfab.com/dipietron)","license":"CC-BY-4.0 (http://creativecommons.org/licenses/by/4.0/)","source":"https://sketchfab.com/models/6e1e4cf5c6d74da286cbf425a939c9ce","title":"Madrona Invasives"}},"extensionsUsed":["KHR_mesh_quantization","KHR_texture_transform"],"extensionsRequired":["KHR_mesh_quantization"],"bufferViews":[{"buffer":0,"byteOffset":0,"byteLength":2414368,"byteStride":4,"target":34962},{"buffer":0,"byteOffset":2414368,"byteLength":4828736,"byteStride":8,"target":34962},{"buffer":0,"byteOffset":7243104,"byteLength":2414368,"byteStride":4,"target":34962},{"buffer":0,"byteOffset":9657472,"byteLength":2131914,"target":34963},{"buffer":0,"byteOffset":11789388,"byteLength":2016236,"byteStride":4,"target":34962},{"buffer":0,"byteOffset":13805624,"byteLength":30880,"byteStride":4,"target":34962},{"buffer":0,"byteOffset":13836504,"byteLength":4080756,"target":34963}],"accessors":[{"bufferView":0,"byteOffset":0,"componentType":5120,"count":13308,"type":"VEC3","normalized":true},{"bufferView":1,"byteOffset":0,"componentType":5123,"count":13308,"type":"VEC3","min":[4360,1238,5590],"max":[12136,8605,13485]},{"bufferView":2,"byteOffset":0,"componentType":5123,"count":13308,"type":"VEC2"},{"bufferView":3,"byteOffset":0,"componentType":5123,"count":67881,"type":"SCALAR"},{"bufferView":0,"byteOffset":53232,"componentType":5120,"count":13154,"type":"VEC3","normalized":true},{"bufferView":1,"byteOffset":106464,"componentType":5123,"count":13154,"type":"VEC3","min":[5250,23,9641],"max":[12889,8755,13729]},{"bufferView":4,"byteOffset":0,"componentType":5120,"count":13154,"type":"VEC4","normalized":true},{"bufferView":2,"byteOffset":53232,"componentType":5123,"count":13154,"type":"VEC2"},{"bufferView":3,"byteOffset":135762,"componentType":5123,"count":24786,"type":"SCALAR"},{"bufferView":5,"byteOffset":0,"componentType":5121,"count":7720,"type":"VEC4","normalized":true},{"bufferView":0,"byteOffset":105848,"componentType":5120,"count":7720,"type":"VEC3","normalized":true},{"bufferView":1,"byteOffset":211696,"componentType":5123,"count":7720,"type":"VEC3","min":[2656,257,4391],"max":[12764,10346,14212]},{"bufferView":4,"byteOffset":52616,"componentType":5120,"count":7720,"type":"VEC4","normalized":true},{"bufferView":2,"byteOffset":105848,"componentType":5123,"count":7720,"type":"VEC2"},{"bufferView":3,"byteOffset":185334,"componentType":5123,"count":22536,"type":"SCALAR"},{"bufferView":0,"byteOffset":136728,"componentType":5120,"count":148240,"type":"VEC3","normalized":true},{"bufferView":1,"byteOffset":273456,"componentType":5123,"count":148240,"type":"VEC3","min":[165,3873,404],"max":[14668,16318,16213]},{"bufferView":4,"byteOffset":83496,"componentType":5120,"count":148240,"type":"VEC4","normalized":true},{"bufferView":2,"byteOffset":136728,"componentType":5123,"count":148240,"type":"VEC2"},{"bufferView":6,"byteOffset":0,"componentType":5125,"count":723696,"type":"SCALAR"},{"bufferView":0,"byteOffset":729688,"componentType":5120,"count":57404,"type":"VEC3","normalized":true},{"bufferView":1,"byteOffset":1459376,"componentType":5123,"count":57404,"type":"VEC3","min":[5661,4864,2656],"max":[12428,10951,14026]},{"bufferView":2,"byteOffset":729688,"componentType":5123,"count":57404,"type":"VEC2"},{"bufferView":3,"byteOffset":230406,"componentType":5123,"count":272412,"type":"SCALAR"},{"bufferView":0,"byteOffset":959304,"componentType":5120,"count":7198,"type":"VEC3","normalized":true},{"bufferView":1,"byteOffset":1918608,"componentType":5123,"count":7198,"type":"VEC3","min":[5725,4760,2570],"max":[12491,11022,13973]},{"bufferView":2,"byteOffset":959304,"componentType":5123,"count":7198,"type":"VEC2"},{"bufferView":3,"byteOffset":775230,"componentType":5123,"count":14514,"type":"SCALAR"},{"bufferView":0,"byteOffset":988096,"componentType":5120,"count":56762,"type":"VEC3","normalized":true},{"bufferView":1,"byteOffset":1976192,"componentType":5123,"count":56762,"type":"VEC3","min":[220,358,1443],"max":[14031,15520,15443]},{"bufferView":4,"byteOffset":676456,"componentType":5120,"count":56762,"type":"VEC4","normalized":true},{"bufferView":2,"byteOffset":988096,"componentType":5123,"count":56762,"type":"VEC2"},{"bufferView":3,"byteOffset":804258,"componentType":5123,"count":282156,"type":"SCALAR"},{"bufferView":0,"byteOffset":1215144,"componentType":5120,"count":144987,"type":"VEC3","normalized":true},{"bufferView":1,"byteOffset":2430288,"componentType":5123,"count":144987,"type":"VEC3","min":[0,3772,0],"max":[14880,16294,16383]},{"bufferView":4,"byteOffset":903504,"componentType":5120,"count":144987,"type":"VEC4","normalized":true},{"bufferView":2,"byteOffset":1215144,"componentType":5123,"count":144987,"type":"VEC2"},{"bufferView":6,"byteOffset":2894784,"componentType":5125,"count":296493,"type":"SCALAR"},{"bufferView":0,"byteOffset":1795092,"componentType":5120,"count":18622,"type":"VEC3","normalized":true},{"bufferView":1,"byteOffset":3590184,"componentType":5123,"count":18622,"type":"VEC3","min":[2389,0,2915],"max":[12845,13804,14751]},{"bufferView":4,"byteOffset":1483452,"componentType":5120,"count":18622,"type":"VEC4","normalized":true},{"bufferView":2,"byteOffset":1795092,"componentType":5123,"count":18622,"type":"VEC2"},{"bufferView":3,"byteOffset":1368570,"componentType":5123,"count":41442,"type":"SCALAR"},{"bufferView":0,"byteOffset":1869580,"componentType":5120,"count":57076,"type":"VEC3","normalized":true},{"bufferView":1,"byteOffset":3739160,"componentType":5123,"count":57076,"type":"VEC3","min":[5679,4807,2532],"max":[12589,10905,14007]},{"bufferView":4,"byteOffset":1557940,"componentType":5120,"count":57076,"type":"VEC4","normalized":true},{"bufferView":2,"byteOffset":1869580,"componentType":5123,"count":57076,"type":"VEC2"},{"bufferView":3,"byteOffset":1451454,"componentType":5123,"count":111252,"type":"SCALAR"},{"bufferView":0,"byteOffset":2097884,"componentType":5120,"count":24716,"type":"VEC3","normalized":true},{"bufferView":1,"byteOffset":4195768,"componentType":5123,"count":24716,"type":"VEC3","min":[4338,942,4521],"max":[12221,9923,13291]},{"bufferView":4,"byteOffset":1786244,"componentType":5120,"count":24716,"type":"VEC4","normalized":true},{"bufferView":2,"byteOffset":2097884,"componentType":5123,"count":24716,"type":"VEC2"},{"bufferView":3,"byteOffset":1673958,"componentType":5123,"count":45360,"type":"SCALAR"},{"bufferView":0,"byteOffset":2196748,"componentType":5120,"count":8864,"type":"VEC3","normalized":true},{"bufferView":1,"byteOffset":4393496,"componentType":5123,"count":8864,"type":"VEC3","min":[3288,3984,10249],"max":[14862,10645,16140]},{"bufferView":2,"byteOffset":2196748,"componentType":5123,"count":8864,"type":"VEC2"},{"bufferView":3,"byteOffset":1764678,"componentType":5123,"count":17748,"type":"SCALAR"},{"bufferView":0,"byteOffset":2232204,"componentType":5120,"count":12759,"type":"VEC3","normalized":true},{"bufferView":1,"byteOffset":4464408,"componentType":5123,"count":12759,"type":"VEC3","min":[6027,1082,9702],"max":[12085,8120,12621]},{"bufferView":2,"byteOffset":2232204,"componentType":5123,"count":12759,"type":"VEC2"},{"bufferView":3,"byteOffset":1800174,"componentType":5123,"count":63579,"type":"SCALAR"},{"bufferView":0,"byteOffset":2283240,"componentType":5120,"count":12588,"type":"VEC3","normalized":true},{"bufferView":1,"byteOffset":4566480,"componentType":5123,"count":12588,"type":"VEC3","min":[2632,1066,2009],"max":[12243,16085,14065]},{"bufferView":4,"byteOffset":1885108,"componentType":5120,"count":12588,"type":"VEC4","normalized":true},{"bufferView":2,"byteOffset":2283240,"componentType":5123,"count":12588,"type":"VEC2"},{"bufferView":3,"byteOffset":1927332,"componentType":5123,"count":62457,"type":"SCALAR"},{"bufferView":0,"byteOffset":2333592,"componentType":5120,"count":18118,"type":"VEC3","normalized":true},{"bufferView":1,"byteOffset":4667184,"componentType":5123,"count":18118,"type":"VEC3","min":[94,3701,135],"max":[14785,16242,16257]},{"bufferView":4,"byteOffset":1935460,"componentType":5120,"count":18118,"type":"VEC4","normalized":true},{"bufferView":2,"byteOffset":2333592,"componentType":5123,"count":18118,"type":"VEC2"},{"bufferView":3,"byteOffset":2052246,"componentType":5123,"count":35502,"type":"SCALAR"},{"bufferView":0,"byteOffset":2406064,"componentType":5120,"count":2076,"type":"VEC3","normalized":true},{"bufferView":1,"byteOffset":4812128,"componentType":5123,"count":2076,"type":"VEC3","min":[5730,904,10093],"max":[12640,4756,14529]},{"bufferView":4,"byteOffset":2007932,"componentType":5120,"count":2076,"type":"VEC4","normalized":true},{"bufferView":2,"byteOffset":2406064,"componentType":5123,"count":2076,"type":"VEC2"},{"bufferView":3,"byteOffset":2123250,"componentType":5123,"count":4332,"type":"SCALAR"}],"images":[{"uri":"textures/OilPaint_4287806718_baseColor.png"},{"uri":"textures/OilPaint_4287806718_normal.png"},{"uri":"textures/Ink_4279146624_baseColor.png"},{"uri":"textures/Ink_4279146624_normal.png"},{"uri":"textures/Ink_4287233202_baseColor.png"},{"uri":"textures/Ink_4287806718_baseColor.png"},{"uri":"textures/Ink_4287806718_normal.png"},{"uri":"textures/Wire_4278349609_baseColor.png"},{"uri":"textures/Wire_4278271387_baseColor.png"},{"uri":"textures/Wire_4278271387_normal.png"},{"uri":"textures/Wire_4293000439_baseColor.png"},{"uri":"textures/Wire_4287806718_baseColor.png"},{"uri":"textures/Wire_4287806718_normal.png"},{"uri":"textures/ThickPaint_819821_baseColor.png"},{"uri":"textures/ThickPaint_819821_normal.png"},{"uri":"textures/OilPaint_4278429502_baseColor.png"},{"uri":"textures/OilPaint_4278429502_normal.png"},{"uri":"textures/Wire_4282157053_baseColor.png"},{"uri":"textures/Wire_4282157053_normal.png"},{"uri":"textures/Ink_4291813886_baseColor.png"},{"uri":"textures/OilPaint_4282157053_baseColor.png"},{"uri":"textures/OilPaint_4282157053_normal.png"},{"uri":"textures/OilPaint_4278806872_baseColor.png"},{"uri":"textures/OilPaint_4278806872_normal.png"},{"uri":"textures/Ink_4282157053_baseColor.png"},{"uri":"textures/Ink_4282157053_normal.png"},{"uri":"textures/Wire_4279146624_baseColor.png"}],"textures":[{"source":0},{"source":1},{"source":2},{"source":3},{"source":4},{"source":5},{"source":6},{"source":7},{"source":8},{"source":9},{"source":10},{"source":11},{"source":12},{"source":13},{"source":14},{"source":15},{"source":16},{"source":17},{"source":18},{"source":19},{"source":20},{"source":21},{"source":22},{"source":23},{"source":24},{"source":25},{"source":26}],"materials":[{"name":"Ink_4287806718","pbrMetallicRoughness":{"baseColorTexture":{"index":5,"texCoord":0,"extensions":{"KHR_texture_transform":{"offset":[-0.000159999996,0],"scale":[0.000244244206,0.000244200259]}}},"metallicFactor":0,"roughnessFactor":0.599275887},"normalTexture":{"index":6,"texCoord":0,"extensions":{"KHR_texture_transform":{"offset":[-0.000159999996,0],"scale":[0.000244244206,0.000244200259]}}},"alphaMode":"MASK","alphaCutoff":0.111471035,"doubleSided":true},{"name":"OilPaint_4287806718","pbrMetallicRoughness":{"baseColorTexture":{"index":0,"texCoord":0,"extensions":{"KHR_texture_transform":{"offset":[-0.01064,0],"scale":[0.000247685006,6.10500647e-05]}}},"metallicFactor":0.111471035,"roughnessFactor":0.200000003},"normalTexture":{"index":1,"texCoord":0,"extensions":{"KHR_texture_transform":{"offset":[-0.01064,0],"scale":[0.000247685006,6.10500647e-05]}}},"alphaMode":"MASK","alphaCutoff":0.391958833,"doubleSided":true},{"name":"Wire_4287806718","pbrMetallicRoughness":{"baseColorTexture":{"index":11,"texCoord":0,"extensions":{"KHR_texture_transform":{"offset":[0.694019973,0],"scale":[0.00119749701,0.000244200259]}}},"metallicFactor":0.0931783542,"roughnessFactor":0.721227109},"normalTexture":{"index":12,"texCoord":0,"extensions":{"KHR_texture_transform":{"offset":[0.694019973,0],"scale":[0.00119749701,0.000244200259]}}},"doubleSided":true},{"name":"Wire_4293000439","pbrMetallicRoughness":{"baseColorTexture":{"index":10,"texCoord":0,"extensions":{"KHR_texture_transform":{"offset":[-0.0248799995,0],"scale":[0.00114962389,0.000244200259]}}},"metallicFactor":0.0687881112,"roughnessFactor":0.200000003},"doubleSided":true},{"name":"Ink_4291813886","pbrMetallicRoughness":{"baseColorTexture":{"index":19,"texCoord":0,"extensions":{"KHR_texture_transform":{"offset":[0,0],"scale":[0.000244200259,6.10500647e-05]}}},"metallicFactor":0.0931783542,"roughnessFactor":0.178544208},"alphaMode":"MASK","alphaCutoff":0.580983222,"doubleSided":true},{"name":"OilPaint_4278806872","pbrMetallicRoughness":{"baseColorFactor":[0.343178362,0.343178362,0.343178362,1],"baseColorTexture":{"index":22,"texCoord":0,"extensions":{"KHR_texture_transform":{"offset":[0,0],"scale":[0.000244200259,0.000244200259]}}},"metallicFactor":0.0931783542,"roughnessFactor":0.105373472},"normalTexture":{"index":23,"texCoord":0,"extensions":{"KHR_texture_transform":{"offset":[0,0],"scale":[0.000244200259,0.000244200259]}}},"alphaMode":"MASK","alphaCutoff":0.623666167,"doubleSided":true},{"name":"OilPaint_4278429502","pbrMetallicRoughness":{"baseColorTexture":{"index":15,"texCoord":0,"extensions":{"KHR_texture_transform":{"offset":[-0.01241,0],"scale":[0.000249914534,0.000244200259]}}},"metallicFactor":0.215129569,"roughnessFactor":0.200000003},"normalTexture":{"index":16,"texCoord":0,"extensions":{"KHR_texture_transform":{"offset":[-0.01241,0],"scale":[0.000249914534,0.000244200259]}}},"emissiveFactor":[0.0160000008,0.0160000008,0.0160000008],"alphaMode":"MASK","alphaCutoff":0.965129554,"doubleSided":true},{"name":"Ink_4282157053","pbrMetallicRoughness":{"baseColorTexture":{"index":24,"texCoord":0,"extensions":{"KHR_texture_transform":{"offset":[0,0],"scale":[0.000244200259,0.000244200259]}}},"metallicFactor":0.0931783542,"roughnessFactor":0.818788111},"normalTexture":{"index":25,"texCoord":0,"extensions":{"KHR_texture_transform":{"offset":[0,0],"scale":[0.000244200259,0.000244200259]}}},"alphaMode":"MASK","alphaCutoff":0.154153958,"doubleSided":true},{"name":"OilPaint_4282157053","pbrMetallicRoughness":{"baseColorFactor":[0.751714945,0.751714945,0.751714945,1],"baseColorTexture":{"index":20,"texCoord":0,"extensions":{"KHR_texture_transform":{"offset":[-0.0180399995,0],"scale":[0.000268766773,0.000244200259]}}},"metallicFactor":0.410251528,"roughnessFactor":0.23951982},"normalTexture":{"index":21,"texCoord":0,"extensions":{"KHR_texture_transform":{"offset":[-0.0180399995,0],"scale":[0.000268766773,0.000244200259]}}},"alphaMode":"MASK","alphaCutoff":0.367568612,"doubleSided":true},{"name":"Wire_4282157053","pbrMetallicRoughness":{"baseColorFactor":[0.49561739,0.49561739,0.49561739,1],"baseColorTexture":{"index":17,"texCoord":0,"extensions":{"KHR_texture_transform":{"offset":[0.694000006,0],"scale":[0.00122000242,0.000244200259]}}},"metallicFactor":0.0687881112,"roughnessFactor":0.550495446},"normalTexture":{"index":18,"texCoord":0,"extensions":{"KHR_texture_transform":{"offset":[0.694000006,0],"scale":[0.00122000242,0.000244200259]}}},"doubleSided":true},{"name":"Ink_4287233202","pbrMetallicRoughness":{"baseColorTexture":{"index":4,"texCoord":0,"extensions":{"KHR_texture_transform":{"offset":[-0.00431000022,0],"scale":[0.000245516509,0.000244200259]}}},"metallicFactor":0,"roughnessFactor":0},"alphaMode":"MASK","alphaCutoff":0.172446653,"doubleSided":true},{"name":"Wire_4278349609","pbrMetallicRoughness":{"baseColorTexture":{"index":7,"texCoord":0,"extensions":{"KHR_texture_transform":{"offset":[-0.0258200001,0],"scale":[0.00581193622,0.000244200259]}}},"metallicFactor":0.154153958,"roughnessFactor":0.200000003},"doubleSided":true},{"name":"Wire_4278271387","pbrMetallicRoughness":{"baseColorFactor":[0.532202721,0.532202721,0.532202721,1],"baseColorTexture":{"index":8,"texCoord":0,"extensions":{"KHR_texture_transform":{"offset":[0.497920007,0],"scale":[0.00121505244,0.000244200259]}}},"metallicFactor":0.111471035,"roughnessFactor":0.641958833},"normalTexture":{"index":9,"texCoord":0,"extensions":{"KHR_texture_transform":{"offset":[0.497920007,0],"scale":[0.00121505244,0.000244200259]}}},"doubleSided":true},{"name":"ThickPaint_819821","pbrMetallicRoughness":{"baseColorTexture":{"index":13,"texCoord":0,"extensions":{"KHR_texture_transform":{"offset":[0.01296,0],"scale":[0.00152355805,0.000244200259]}}},"metallicFactor":0.0931783542,"roughnessFactor":0.196836889},"normalTexture":{"index":14,"texCoord":0,"extensions":{"KHR_texture_transform":{"offset":[0.01296,0],"scale":[0.00152355805,0.000244200259]}}},"alphaMode":"MASK","alphaCutoff":0.751714945,"doubleSided":true},{"name":"Ink_4279146624","pbrMetallicRoughness":{"baseColorFactor":[0.446836889,0.446836889,0.446836889,1],"baseColorTexture":{"index":2,"texCoord":0,"extensions":{"KHR_texture_transform":{"offset":[-0.00138999999,0],"scale":[0.000245626346,0.000244200259]}}},"metallicFactor":0.0261051822,"roughnessFactor":0.318788111},"normalTexture":{"index":3,"texCoord":0,"extensions":{"KHR_texture_transform":{"offset":[-0.00138999999,0],"scale":[0.000245626346,0.000244200259]}}},"emissiveFactor":[0.0160000008,0.0160000008,0.0160000008],"alphaMode":"MASK","alphaCutoff":0.422446638,"doubleSided":true},{"name":"Wire_4279146624","pbrMetallicRoughness":{"baseColorFactor":[0.532202721,0.532202721,0.532202721,1],"baseColorTexture":{"index":26,"texCoord":0,"extensions":{"KHR_texture_transform":{"offset":[-0.0261100009,0],"scale":[0.00240632216,0.000244200259]}}},"metallicFactor":0,"roughnessFactor":0.200000003},"doubleSided":true}],"meshes":[{"primitives":[{"attributes":{"NORMAL":0,"POSITION":1,"TEXCOORD_0":2},"mode":4,"indices":3,"material":15},{"attributes":{"NORMAL":4,"POSITION":5,"TANGENT":6,"TEXCOORD_0":7},"mode":4,"indices":8,"material":14},{"attributes":{"COLOR_0":9,"NORMAL":10,"POSITION":11,"TANGENT":12,"TEXCOORD_0":13},"mode":4,"indices":14,"material":13},{"attributes":{"NORMAL":15,"POSITION":16,"TANGENT":17,"TEXCOORD_0":18},"mode":4,"indices":19,"material":12},{"attributes":{"NORMAL":20,"POSITION":21,"TEXCOORD_0":22},"mode":4,"indices":23,"material":11},{"attributes":{"NORMAL":24,"POSITION":25,"TEXCOORD_0":26},"mode":4,"indices":27,"material":10},{"attributes":{"NORMAL":28,"POSITION":29,"TANGENT":30,"TEXCOORD_0":31},"mode":4,"indices":32,"material":9},{"attributes":{"NORMAL":33,"POSITION":34,"TANGENT":35,"TEXCOORD_0":36},"mode":4,"indices":37,"material":8},{"attributes":{"NORMAL":38,"POSITION":39,"TANGENT":40,"TEXCOORD_0":41},"mode":4,"indices":42,"material":7},{"attributes":{"NORMAL":43,"POSITION":44,"TANGENT":45,"TEXCOORD_0":46},"mode":4,"indices":47,"material":6},{"attributes":{"NORMAL":48,"POSITION":49,"TANGENT":50,"TEXCOORD_0":51},"mode":4,"indices":52,"material":5},{"attributes":{"NORMAL":53,"POSITION":54,"TEXCOORD_0":55},"mode":4,"indices":56,"material":4},{"attributes":{"NORMAL":57,"POSITION":58,"TEXCOORD_0":59},"mode":4,"indices":60,"material":3},{"attributes":{"NORMAL":61,"POSITION":62,"TANGENT":63,"TEXCOORD_0":64},"mode":4,"indices":65,"material":2},{"attributes":{"NORMAL":66,"POSITION":67,"TANGENT":68,"TEXCOORD_0":69},"mode":4,"indices":70,"material":1},{"attributes":{"NORMAL":71,"POSITION":72,"TANGENT":73,"TEXCOORD_0":74},"mode":4,"indices":75,"material":0}]}],"nodes":[{"mesh":0,"translation":[-24.4348679,1.36074889,-23.7904224],"scale":[0.00247933902,0.00247933902,0.00247933902]}],"scenes":[{"name":"OSG_Scene","nodes":[0]}],"scene":0}