<svg xmlns="http://www.w3.org/2000/svg" data-name="Layer 1" viewBox="0 0 100 125" x="0px" y="0px"><title>a</title><polygon points="57.21 27.558 80.207 27.558 57.21 8.032 57.21 27.558"/><path d="M59.81282,73.56841H7.359V9.13827H49.46251v21.3558A4.812,4.812,0,0,0,54.27342,35.305H78.36008V57.54524c.609-.05342,1.22385-.086,1.84644-.086a21.03577,21.03577,0,0,1,3.00712.21888V34.17959a3.73353,3.73353,0,0,0-3.73352-3.73352H56.48689a2.16545,2.16545,0,0,1-2.16544-2.16547V8.01288A3.73354,3.73354,0,0,0,50.5879,4.27933H4.55915A2.05918,2.05918,0,0,0,2.5,6.33852V76.36813a2.05918,2.05918,0,0,0,2.05915,2.05919H59.23831A20.93328,20.93328,0,0,1,59.81282,73.56841Z"/><circle cx="41.06216" cy="36.33268" r="4.27591"/><path d="M66.47353,62.60247,59.797,50.03962a1.23436,1.23436,0,0,0-1.77743-.446l-8.762,5.87495a1.23438,1.23438,0,0,1-1.865-.65514L44.5962,45.91578a1.23438,1.23438,0,0,0-1.64917-.77062l-7.163,2.96106a1.23445,1.23445,0,0,1-1.48438-.4351l-4.69327-6.73586a1.2344,1.2344,0,0,0-2.14009.20277l-11.777,26.3992a1.23438,1.23438,0,0,0,1.12729,1.73728H61.34528A21.086,21.086,0,0,1,66.47353,62.60247Z"/><path d="M80.20662,61.134A17.29336,17.29336,0,1,0,97.5,78.42729,17.29337,17.29337,0,0,0,80.20662,61.134ZM77.288,68.96727a2.9244,2.9244,0,0,1,3.2041-2.90862,3.0049,3.0049,0,0,1,2.63317,3.02948V79.44319a2.91864,2.91864,0,0,1-5.83727,0ZM80.20662,90.8089a3.007,3.007,0,1,1,3.007-3.007A3.007,3.007,0,0,1,80.20662,90.8089Z"/><text x="0" y="115" fill="#000000" font-size="5px" font-weight="bold" font-family="'Helvetica Neue', Helvetica, Arial-Unicode, Arial, Sans-serif">Created by MOHAMMED SALIM</text><text x="0" y="120" fill="#000000" font-size="5px" font-weight="bold" font-family="'Helvetica Neue', Helvetica, Arial-Unicode, Arial, Sans-serif">from the Noun Project</text></svg>