{
  "accessors": [
    {
      "bufferView": 2,
      "componentType": 5126,
      "count": 65532,
      "max": [
        0.5,
        -0.025817999616265297,
        0.48337900638580322
      ],
      "min": [
        -0.5,
        -0.16742800176143646,
        -0.5
      ],
      "type": "VEC3"
    },
    {
      "bufferView": 2,
      "byteOffset": 786384,
      "componentType": 5126,
      "count": 65532,
      "max": [
        0.95301258563995361,
        -0.29499664902687073,
        0.90908199548721313
      ],
      "min": [
        -0.92962628602981567,
        -0.9999995231628418,
        -0.93209457397460938
      ],
      "type": "VEC3"
    },
    {
      "bufferView": 1,
      "componentType": 5126,
      "count": 65532,
      "max": [
        1,
        0.98337900638580322
      ],
      "min": [
        0,
        0
      ],
      "type": "VEC2"
    },
    {
      "bufferView": 0,
      "componentType": 5125,
      "count": 358722,
      "max": [
        65531
      ],
      "min": [
        0
      ],
      "type": "SCALAR"
    },
    {
      "bufferView": 2,
      "byteOffset": 1572768,
      "componentType": 5126,
      "count": 65532,
      "max": [
        0.5,
        -0.025288000702857971,
        0.5
      ],
      "min": [
        -0.5,
        -0.15251700580120087,
        -0.098338000476360321
      ],
      "type": "VEC3"
    },
    {
      "bufferView": 2,
      "byteOffset": 2359152,
      "componentType": 5126,
      "count": 65532,
      "max": [
        0.89935040473937988,
        -0.27265912294387817,
        0.88756281137466431
      ],
      "min": [
        -0.9386940598487854,
        -0.99999958276748657,
        -0.91031193733215332
      ],
      "type": "VEC3"
    },
    {
      "bufferView": 1,
      "byteOffset": 524256,
      "componentType": 5126,
      "count": 65532,
      "max": [
        1,
        1
      ],
      "min": [
        0,
        0.40166199207305908
      ],
      "type": "VEC2"
    },
    {
      "bufferView": 0,
      "byteOffset": 1434888,
      "componentType": 5125,
      "count": 359946,
      "max": [
        65531
      ],
      "min": [
        0
      ],
      "type": "SCALAR"
    },
    {
      "bufferView": 2,
      "byteOffset": 3145536,
      "componentType": 5126,
      "count": 12985,
      "max": [
        0.5,
        -0.026623999699950218,
        0.5
      ],
      "min": [
        -0.49722999334335327,
        -0.15091200172901154,
        0.36426600813865662
      ],
      "type": "VEC3"
    },
    {
      "bufferView": 2,
      "byteOffset": 3301356,
      "componentType": 5126,
      "count": 12985,
      "max": [
        0.901836097240448,
        -0.27855095267295837,
        0.92891925573348999
      ],
      "min": [
        -0.89852428436279297,
        -0.99999576807022095,
        -0.89282041788101196
      ],
      "type": "VEC3"
    },
    {
      "bufferView": 1,
      "byteOffset": 1048512,
      "componentType": 5126,
      "count": 12985,
      "max": [
        1,
        1
      ],
      "min": [
        0.0027699999045580626,
        0.86426597833633423
      ],
      "type": "VEC2"
    },
    {
      "bufferView": 0,
      "byteOffset": 2874672,
      "componentType": 5125,
      "count": 63258,
      "max": [
        12984
      ],
      "min": [
        0
      ],
      "type": "SCALAR"
    }
  ],
  "asset": {
    "extras": {
      "author": "artfromheath (https://sketchfab.com/artfromheath)",
      "license": "CC-BY-4.0 (http://creativecommons.org/licenses/by/4.0/)",
      "source": "https://sketchfab.com/3d-models/snowy-mountain-terrain-9fa3c56fd32746bcb0e06cd2c4229ca0",
      "title": "Snowy Mountain - Terrain"
    },
    "generator": "Sketchfab-7.73.0",
    "version": "2.0"
  },
  "bufferViews": [
    {
      "buffer": 0,
      "byteLength": 3127704,
      "byteOffset": 0,
      "name": "floatBufferViews",
      "target": 34963
    },
    {
      "buffer": 0,
      "byteLength": 1152392,
      "byteOffset": 3127704,
      "byteStride": 8,
      "name": "floatBufferViews",
      "target": 34962
    },
    {
      "buffer": 0,
      "byteLength": 3457176,
      "byteOffset": 4280096,
      "byteStride": 12,
      "name": "floatBufferViews",
      "target": 34962
    }
  ],
  "buffers": [
    {
      "byteLength": 7737272,
      "uri": "scene.bin"
    }
  ],
  "images": [
    {
      "uri": "textures/material_0_baseColor.jpeg"
    }
  ],
  "materials": [
    {
      "doubleSided": true,
      "name": "material_0",
      "pbrMetallicRoughness": {
        "baseColorFactor": [
          1,
          1,
          1,
          1
        ],
        "baseColorTexture": {
          "index": 0,
          "texCoord": 0
        },
        "metallicFactor": 0,
        "roughnessFactor": 0.59999999999999998
      }
    }
  ],
  "meshes": [
    {
      "primitives": [
        {
          "attributes": {
            "NORMAL": 1,
            "POSITION": 0,
            "TEXCOORD_0": 2
          },
          "indices": 3,
          "material": 0,
          "mode": 4
        }
      ]
    },
    {
      "primitives": [
        {
          "attributes": {
            "NORMAL": 5,
            "POSITION": 4,
            "TEXCOORD_0": 6
          },
          "indices": 7,
          "material": 0,
          "mode": 4
        }
      ]
    },
    {
      "primitives": [
        {
          "attributes": {
            "NORMAL": 9,
            "POSITION": 8,
            "TEXCOORD_0": 10
          },
          "indices": 11,
          "material": 0,
          "mode": 4
        }
      ]
    }
  ],
  "nodes": [
    {
      "children": [
        1
      ],
      "name": "RootNode (gltf orientation matrix)",
      "rotation": [
        -0.70710678118654746,
        -0,
        -0,
        0.70710678118654757
      ]
    },
    {
      "children": [
        2
      ],
      "matrix": [
        0.99998855590820312,
        9.5984782092273235e-05,
        0.0047810892574489117,
        0,
        0.0047810892574489117,
        4.5891704303357983e-07,
        -0.99998855590820312,
        0,
        -9.5985880761872977e-05,
        1,
        -7.3984092777926863e-17,
        0,
        0.00046069626114331186,
        -0.096357822418212891,
        -0.096357062458992004,
        1
      ],
      "name": "RootNode (model correction matrix)"
    },
    {
      "children": [
        3,
        4,
        5
      ],
      "name": "SnowyMountainMesh.obj.cleaner.materialmerger.gles"
    },
    {
      "mesh": 0,
      "name": ""
    },
    {
      "mesh": 1,
      "name": ""
    },
    {
      "mesh": 2,
      "name": ""
    }
  ],
  "samplers": [
    {
      "magFilter": 9729,
      "minFilter": 9987,
      "wrapS": 10497,
      "wrapT": 10497
    }
  ],
  "scene": 0,
  "scenes": [
    {
      "name": "OSG_Scene",
      "nodes": [
        0
      ]
    }
  ],
  "textures": [
    {
      "sampler": 0,
      "source": 0
    }
  ]
}

