{
  "accessors": [
    {
      "bufferView": 0,
      "componentType": 5126,
      "count": 50000,
      "max": [
        288.8330078125,
        313.2330017089844,
        225.4040069580078
      ],
      "min": [
        -58.488800048828125,
        -81.83899688720703,
        -15.739500045776367
      ],
      "type": "VEC3",
      "byteOffset": 0
    },
    {
      "bufferView": 1,
      "componentType": 5126,
      "count": 50000,
      "max": [
        1,
        1,
        1,
        1
      ],
      "min": [
        0.6745098233222961,
        0,
        0,
        1
      ],
      "type": "VEC4",
      "byteOffset": 0
    }
  ],
  "asset": {
    "extras": {
      "author": "Loïc Norgeot (https://sketchfab.com/norgeotloic)",
      "license": "CC-BY-4.0 (http://creativecommons.org/licenses/by/4.0/)",
      "source": "https://sketchfab.com/3d-models/need-some-space-d6521362b37b48e3a82bce4911409303",
      "title": "Need some space?"
    },
    "generator": "Sketchfab-5.84.2",
    "version": "2.0"
  },
  "bufferViews": [
    {
      "buffer": 0,
      "byteLength": 600000,
      "byteOffset": 0,
      "byteStride": 12,
      "name": "floatBufferViews",
      "target": 34962
    },
    {
      "buffer": 0,
      "byteLength": 800000,
      "byteOffset": 600000,
      "byteStride": 16,
      "name": "floatBufferViews",
      "target": 34962
    }
  ],
  "buffers": [
    {
      "name": "scene",
      "byteLength": 1400000,
      "uri": "data:application/octet-stream;base64,"
    }
  ],
  "extensionsUsed": [
    "KHR_materials_unlit"
  ],
  "materials": [
    {
      "doubleSided": true,
      "extensions": {
        "KHR_materials_unlit": {}
      },
      "name": "Scene_-_Root",
      "pbrMetallicRoughness": {
        "baseColorFactor": [
          1,
          1,
          1,
          1
        ],
        "metallicFactor": 0,
        "roughnessFactor": 1
      },
      "emissiveFactor": [
        0,
        0,
        0
      ],
      "alphaMode": "OPAQUE"
    }
  ],
  "meshes": [
    {
      "primitives": [
        {
          "attributes": {
            "COLOR_0": 1,
            "POSITION": 0
          },
          "material": 0,
          "mode": 0
        }
      ]
    }
  ],
  "nodes": [
    {
      "children": [
        1
      ],
      "name": "RootNode (gltf orientation matrix)",
      "rotation": [
        -0.7071067811865475,
        0,
        0,
        0.7071067811865476
      ],
      "translation": [
        0,
        0,
        0
      ],
      "scale": [
        1,
        1,
        1
      ]
    },
    {
      "children": [
        2
      ],
      "name": "RootNode (model correction matrix)"
    },
    {
      "children": [
        3
      ],
      "name": "Geode"
    },
    {
      "mesh": 0,
      "name": ""
    }
  ],
  "scene": 0,
  "scenes": [
    {
      "name": "OSG_Scene",
      "nodes": [
        0
      ]
    }
  ]
}
