{"buffers":[{"uri":"scene.bin","byteLength":24520},{"byteLength":62976,"extensions":{"EXT_meshopt_compression":{"fallback":true}}}],"asset":{"version":"2.0","generator":"gltfpack 0.15"},"extensionsUsed":["KHR_mesh_quantization","EXT_meshopt_compression"],"extensionsRequired":["KHR_mesh_quantization","EXT_meshopt_compression"],"bufferViews":[{"buffer":1,"byteOffset":0,"byteLength":33472,"byteStride":8,"target":34962,"extensions":{"EXT_meshopt_compression":{"buffer":0,"byteOffset":0,"byteLength":18246,"byteStride":8,"mode":"ATTRIBUTES","count":4184}}},{"buffer":1,"byteOffset":33472,"byteLength":16736,"byteStride":4,"target":34962,"extensions":{"EXT_meshopt_compression":{"buffer":0,"byteOffset":18248,"byteLength":4121,"byteStride":4,"mode":"ATTRIBUTES","filter":"OCTAHEDRAL","count":4184}}},{"buffer":1,"byteOffset":50208,"byteLength":12768,"target":34963,"extensions":{"EXT_meshopt_compression":{"buffer":0,"byteOffset":22372,"byteLength":2146,"byteStride":2,"mode":"TRIANGLES","count":6384}}}],"accessors":[{"bufferView":0,"byteOffset":0,"componentType":5123,"count":2092,"type":"VEC3","min":[0,0,0],"max":[7598,16106,7598]},{"bufferView":1,"byteOffset":0,"componentType":5120,"count":2092,"type":"VEC3","normalized":true},{"bufferView":2,"byteOffset":0,"componentType":5123,"count":3192,"type":"SCALAR"},{"bufferView":0,"byteOffset":16736,"componentType":5123,"count":2092,"type":"VEC3","min":[8785,0,0],"max":[16383,16106,7598]},{"bufferView":1,"byteOffset":8368,"componentType":5120,"count":2092,"type":"VEC3","normalized":true},{"bufferView":2,"byteOffset":6384,"componentType":5123,"count":3192,"type":"SCALAR"}],"materials":[{"name":"Black Square","pbrMetallicRoughness":{"baseColorFactor":[0.00762072857,0.00560855307,0.00803688262,1],"metallicFactor":0.875,"roughnessFactor":0.150000006},"doubleSided":true},{"name":"White Square","pbrMetallicRoughness":{"baseColorFactor":[0.882937431,1,1,1],"metallicFactor":0.649999976,"roughnessFactor":0.150000006},"doubleSided":true}],"meshes":[{"primitives":[{"attributes":{"POSITION":0,"NORMAL":1},"mode":4,"indices":2,"material":0},{"attributes":{"POSITION":3,"NORMAL":4},"mode":4,"indices":5,"material":1}]}],"nodes":[{"mesh":0,"translation":[-0.0427864641,0,-0.0200104173],"scale":[5.26740996e-06,5.26740996e-06,5.26740996e-06]}],"scenes":[{"name":"Scene","nodes":[0]}],"scene":0}